<?xml version="1.0" encoding="UTF-8"?>
<svg width="21px" height="20px" viewBox="0 0 21 20" version="1.1" xmlns="http://www.w3.org/2000/svg" xmlns:xlink="http://www.w3.org/1999/xlink">
    <!-- Generator: Sketch 48.1 (47250) - http://www.bohemiancoding.com/sketch -->
    <title>globe - simple-line-icons</title>
    <desc>Created with Sketch.</desc>
    <defs></defs>
    <g id="4_Sales_Hierarchy_View" stroke="none" stroke-width="1" fill="none" fill-rule="evenodd" transform="translate(-263.000000, -125.000000)">
        <path d="M283.039062,135 C283.039062,136.328132 282.794924,137.581374 282.306641,138.759766 C281.818357,139.938157 281.147791,140.973303 280.294922,141.865234 C279.442053,142.757166 278.442714,143.479815 277.296875,144.033203 C276.151036,144.586591 274.92709,144.902343 273.625,144.980469 C273.572916,144.980469 273.517578,144.983724 273.458984,144.990234 C273.40039,144.996745 273.345052,145 273.292969,145 L273.019531,145 C271.639316,145 270.340501,144.736331 269.123047,144.208984 C267.905593,143.681638 266.844406,142.965499 265.939453,142.060547 C265.034501,141.155594 264.318362,140.097662 263.791016,138.886719 C263.263669,137.675775 263,136.380215 263,135 C263,133.619785 263.263669,132.324225 263.791016,131.113281 C264.318362,129.902338 265.034501,128.844406 265.939453,127.939453 C266.844406,127.034501 267.905593,126.318362 269.123047,125.791016 C270.340501,125.263669 271.639316,125 273.019531,125 L273.292969,125 C273.345052,125 273.40039,125.003255 273.458984,125.009766 C273.517578,125.016276 273.572916,125.019531 273.625,125.019531 C274.92709,125.097657 276.151036,125.413409 277.296875,125.966797 C278.442714,126.520185 279.442053,127.242834 280.294922,128.134766 C281.147791,129.026697 281.818357,130.061843 282.306641,131.240234 C282.794924,132.418626 283.039062,133.671868 283.039062,135 Z M281.183594,138.222656 C281.378907,137.727862 281.528645,137.210289 281.632812,136.669922 C281.73698,136.129555 281.789062,135.57292 281.789062,135 C281.789062,134.401039 281.730469,133.818362 281.613281,133.251953 C281.496093,132.685544 281.333334,132.14844 281.125,131.640625 L281.359375,132.285156 C281.320312,132.298177 281.076174,132.363281 280.626953,132.480469 C280.177732,132.597657 279.471359,132.714843 278.507812,132.832031 C278.546875,133.183596 278.579427,133.53841 278.605469,133.896484 C278.631511,134.254559 278.644531,134.622394 278.644531,135 C278.644531,135.468752 278.625,135.930987 278.585938,136.386719 C278.546875,136.84245 278.501302,137.285154 278.449219,137.714844 C279.204431,137.80599 279.803383,137.90039 280.246094,137.998047 C280.688804,138.095704 281.001301,138.170573 281.183594,138.222656 Z M268.585938,135 C268.585938,135.455731 268.605469,135.898435 268.644531,136.328125 C268.683594,136.757815 268.735677,137.180988 268.800781,137.597656 C269.308596,137.558594 269.858721,137.526042 270.451172,137.5 C271.043623,137.473958 271.684892,137.454427 272.375,137.441406 L272.375,133.105469 C271.658851,133.105469 270.99805,133.092448 270.392578,133.066406 C269.787106,133.040364 269.230471,133.007813 268.722656,132.96875 C268.683594,133.294272 268.651042,133.6263 268.625,133.964844 C268.598958,134.303387 268.585938,134.648436 268.585938,135 Z M273.625,126.328125 L273.625,131.875 C274.302087,131.861979 274.923825,131.842448 275.490234,131.816406 C276.056643,131.790364 276.580727,131.757813 277.0625,131.71875 C276.906249,131.015621 276.714194,130.361331 276.486328,129.755859 C276.258462,129.150388 275.994793,128.613284 275.695312,128.144531 C275.395832,127.675779 275.070314,127.285158 274.71875,126.972656 C274.367186,126.660155 274.002606,126.445313 273.625,126.328125 Z M272.375,126.347656 C271.997394,126.464844 271.632814,126.682941 271.28125,127.001953 C270.929686,127.320965 270.607423,127.711586 270.314453,128.173828 C270.021483,128.63607 269.757814,129.169919 269.523438,129.775391 C269.289061,130.380862 269.093751,131.028642 268.9375,131.71875 C269.419273,131.757813 269.946612,131.790364 270.519531,131.816406 C271.092451,131.842448 271.710934,131.861979 272.375,131.875 L272.375,126.347656 Z M272.375,138.691406 C271.736976,138.704427 271.144534,138.720703 270.597656,138.740234 C270.050779,138.759766 269.542971,138.789062 269.074219,138.828125 C269.23047,139.453128 269.42578,140.035805 269.660156,140.576172 C269.894532,141.116539 270.154946,141.59505 270.441406,142.011719 C270.727866,142.428387 271.033853,142.776691 271.359375,143.056641 C271.684897,143.33659 272.023436,143.535156 272.375,143.652344 L272.375,138.691406 Z M273.625,143.671875 C273.976564,143.567708 274.318358,143.375652 274.650391,143.095703 C274.982424,142.815754 275.291665,142.46745 275.578125,142.050781 C275.864585,141.634113 276.121744,141.152346 276.349609,140.605469 C276.577475,140.058591 276.76953,139.466149 276.925781,138.828125 C276.47005,138.789062 275.965498,138.759766 275.412109,138.740234 C274.858721,138.720703 274.263024,138.704427 273.625,138.691406 L273.625,143.671875 Z M273.625,137.441406 C274.315108,137.454427 274.956377,137.473958 275.548828,137.5 C276.141279,137.526042 276.684893,137.558594 277.179688,137.597656 C277.244792,137.180988 277.296875,136.757815 277.335938,136.328125 C277.375,135.898435 277.394531,135.455731 277.394531,135 C277.394531,134.648436 277.381511,134.303387 277.355469,133.964844 C277.329427,133.6263 277.296875,133.287762 277.257812,132.949219 C276.763018,133.001302 276.212894,133.040364 275.607422,133.066406 C275.00195,133.092448 274.341149,133.105469 273.625,133.105469 L273.625,137.441406 Z M280.890625,131.132812 C280.434894,130.208329 279.829431,129.388024 279.074219,128.671875 C278.319007,127.955726 277.466151,127.389325 276.515625,126.972656 C276.919273,127.545576 277.277342,128.225908 277.589844,129.013672 C277.902345,129.801436 278.149739,130.664058 278.332031,131.601562 C279.113285,131.510416 279.712238,131.416016 280.128906,131.318359 C280.545575,131.220703 280.799479,131.158854 280.890625,131.132812 Z M270.03125,126.777344 C269.484372,126.972657 268.970054,127.216795 268.488281,127.509766 C268.006508,127.802736 267.557294,128.138019 267.140625,128.515625 C266.723956,128.893231 266.343101,129.306638 265.998047,129.755859 C265.652993,130.20508 265.356772,130.683591 265.109375,131.191406 C265.278647,131.24349 265.578123,131.308593 266.007812,131.386719 C266.437502,131.464844 267.010413,131.542968 267.726562,131.621094 C267.947918,130.618485 268.260415,129.707035 268.664062,128.886719 C269.06771,128.066402 269.523435,127.363284 270.03125,126.777344 Z M264.660156,132.363281 C264.529947,132.77995 264.429037,133.209633 264.357422,133.652344 C264.285807,134.095054 264.25,134.544269 264.25,135 C264.25,135.559899 264.298828,136.103513 264.396484,136.630859 C264.494141,137.158206 264.640624,137.662758 264.835938,138.144531 C265.031251,138.105469 265.356769,138.04362 265.8125,137.958984 C266.268231,137.874349 266.860673,137.792969 267.589844,137.714844 C267.511718,137.285154 267.453125,136.84245 267.414062,136.386719 C267.375,135.930987 267.355469,135.468752 267.355469,135 C267.355469,134.635415 267.365234,134.270835 267.384766,133.90625 C267.404297,133.541665 267.440104,133.190106 267.492188,132.851562 C266.645829,132.760416 265.991539,132.666016 265.529297,132.568359 C265.067055,132.470703 264.777344,132.402344 264.660156,132.363281 Z M265.382812,139.296875 C265.64323,139.752606 265.939451,140.179034 266.271484,140.576172 C266.603517,140.973309 266.964842,141.337889 267.355469,141.669922 C267.746096,142.001955 268.166013,142.301431 268.615234,142.568359 C269.064455,142.835288 269.536456,143.053385 270.03125,143.222656 C269.562498,142.70182 269.14258,142.076827 268.771484,141.347656 C268.400389,140.618486 268.097657,139.811202 267.863281,138.925781 C267.251299,138.990886 266.743492,139.059244 266.339844,139.130859 C265.936196,139.202474 265.617189,139.257812 265.382812,139.296875 Z M276.515625,143.027344 C277.375004,142.649738 278.156246,142.148441 278.859375,141.523438 C279.562504,140.898434 280.148435,140.175785 280.617188,139.355469 C280.421874,139.303385 280.128908,139.241537 279.738281,139.169922 C279.347654,139.098307 278.839847,139.023438 278.214844,138.945312 C278.032551,139.765629 277.794923,140.52083 277.501953,141.210938 C277.208983,141.901045 276.88021,142.506508 276.515625,143.027344 Z" id="globe---simple-line-icons" fill="#0185E1"></path>
    </g>
</svg>