<?xml version="1.0" encoding="utf-8"?>
<!-- Svg Vector Icons : http://www.onlinewebfonts.com/icon -->
<!DOCTYPE svg PUBLIC "-//W3C//DTD SVG 1.1//EN" "http://www.w3.org/Graphics/SVG/1.1/DTD/svg11.dtd">
<svg version="1.1" xmlns="http://www.w3.org/2000/svg" xmlns:xlink="http://www.w3.org/1999/xlink" x="0px" y="0px" viewBox="0 0 1000 1000" enable-background="new 0 0 1000 1000" xml:space="preserve">
<metadata> Svg Vector Icons : http://www.onlinewebfonts.com/icon </metadata>
<g><path d="M500,990c-66.1,0-130.3-13-190.7-38.5c-58.4-24.7-110.8-60-155.7-105s-80.3-97.4-105-155.7C23,630.3,10,566.1,10,500c0-66.1,13-130.3,38.5-190.7c24.7-58.4,60-110.8,105-155.7c45-45,97.4-80.3,155.7-105C369.7,23,433.9,10,500,10c66.1,0,130.3,13,190.7,38.5c58.4,24.7,110.8,60,155.7,105c45,45,80.3,97.4,105,155.7C977,369.7,990,433.9,990,500c0,66.1-13,130.3-38.5,190.7c-24.7,58.4-60,110.8-105,155.7c-45,45-97.4,80.3-155.7,105C630.3,977,566.1,990,500,990z M500,77.4C267,77.4,77.4,267,77.4,500C77.4,733,267,922.6,500,922.6S922.6,733,922.6,500C922.6,267,733,77.4,500,77.4z"/><path d="M781.3,533.7H215c-18.6,0-33.7-15.1-33.7-33.7c0-18.6,15.1-33.7,33.7-33.7h566.3c18.6,0,33.7,15.1,33.7,33.7C815.1,518.6,800,533.7,781.3,533.7z"/><path d="M498.2,816.9c-18.6,0-33.7-15.1-33.7-33.7V216.9c0-18.6,15.1-33.7,33.7-33.7s33.7,15.1,33.7,33.7v566.3C531.9,801.8,516.8,816.9,498.2,816.9z"/></g>
</svg>