<?xml version="1.0" encoding="UTF-8"?>
<svg width="337px" height="337px" viewBox="0 0 337 337" version="1.1" xmlns="http://www.w3.org/2000/svg" xmlns:xlink="http://www.w3.org/1999/xlink">
    <!-- Generator: Sketch 63.1 (92452) - https://sketch.com -->
    <title>Group 49</title>
    <desc>Created with Sketch.</desc>
    <g id="Page-1" stroke="none" stroke-width="1" fill="none" fill-rule="evenodd">
        <g id="Group-49">
            <polygon id="Path-22" fill="#FFFFFF" points="43.0040852 151.697586 19.9318836 215.50372 43.0040852 261.852455 35.1991942 297.216209 76 292.410156 146.637611 292.410156 188.908348 261.852455 128.454978 235.01307 76 184 54.1761304 143.273438"></polygon>
            <path d="M189.5,244 C252.184319,244 290.011049,187.25 290.011049,130.5 C290.011049,73.75 252.184319,17 189.5,17 C126.815681,17 76,67.8156809 76,130.5 C76,193.184319 126.815681,244 189.5,244 Z" id="Oval" fill="#FFFFFF"></path>
            <path d="M307.70376,200.046875 C304.598291,192.367187 295.856104,188.65625 288.176416,191.761719 C280.496728,194.867187 276.785791,203.609375 279.89126,211.289063 L293.289697,244.429687 L252.508447,226.453125 C248.711572,224.777344 244.387354,224.753906 240.570947,226.378906 C225.324854,232.886719 208.98501,236.1875 192.012354,236.1875 C123.801416,236.1875 77.9850098,182.878906 77.9850098,133.089844 C77.9850098,76.246094 129.137354,29.996094 192.012354,29.996094 C254.887354,29.996094 306.039697,76.246094 306.039697,133.089844 C306.039697,137.515625 305.625635,142.820313 304.906885,147.648437 C303.684228,155.839844 309.336572,163.476563 317.527978,164.699219 C325.719385,165.921875 333.356104,160.269531 334.57876,152.074219 C335.520166,145.757813 336.040332,139.015625 336.040332,133.09375 C336.040332,59.703125 271.430322,8.24229573e-13 192.012354,8.24229573e-13 C117.086572,8.24229573e-13 55.3521968,53.144531 48.6061038,120.777344 C18.0748538,141.355469 -3.41060513e-13,174.023437 -3.41060513e-13,209.207031 C-3.41060513e-13,231.011719 6.7545408,251.714844 19.6139158,269.605469 L1.0943848,315.414063 C-1.1946782,321.074219 0.176415803,327.554687 4.5592278,331.804687 C7.4186038,334.574219 11.1803218,336.035156 15.0045408,336.035156 C17.0475098,336.035156 19.1061038,335.617187 21.0514158,334.761719 L74.9146968,311.019531 C88.6490718,316.027344 103.14126,318.5625 118.094385,318.5625 C118.42251,318.5625 118.742822,318.535156 119.063135,318.511719 C141.102197,318.347656 162.527978,312.550781 181.090478,301.699219 C197.461572,292.125 210.988916,279.035156 220.567041,263.574219 C229.305322,261.949219 237.86001,259.578125 246.176416,256.449219 L314.988916,286.78125 C316.934228,287.636719 318.992822,288.054687 321.035791,288.054687 C324.86001,288.054687 328.621728,286.59375 331.481104,283.824219 C335.863916,279.578125 337.23501,273.09375 334.945947,267.433594 L307.70376,200.046875 Z M68.5396968,281.039063 L42.7506348,292.410156 L50.6725098,272.816406 C52.7662598,267.632813 51.8092278,261.714844 48.1803218,257.460937 C36.2896968,243.507813 30.0006348,226.820313 30.0006348,209.203125 C30.0006348,190.277344 37.4811038,172.261719 50.6920408,158.125 C56.0904778,183.042969 69.3600098,206.730469 88.8873538,225.527344 C113.289697,249.007813 145.215478,263.035156 179.817041,265.707031 C163.563135,280.03125 141.434228,288.527344 118.094385,288.527344 C117.914697,288.527344 117.738916,288.546875 117.563135,288.554687 C104.598291,288.488281 92.1256348,285.941406 80.4771968,280.96875 C76.6646968,279.339844 72.3404778,279.367187 68.5396968,281.039063 L68.5396968,281.039063 Z" id="Shape-Copy" fill="#ED1C24" fill-rule="nonzero"></path>
            <path d="M134.053192,140 C126.291,140 120,146.267187 120,154 C120,161.732812 126.291,168 134.053192,168 L206.946808,168 C214.709,168 221,161.732812 221,154 C221,146.267187 214.709,140 206.946808,140 L134.053192,140 Z" id="Path-Copy-3" fill="#ED1C24" fill-rule="nonzero"></path>
            <path d="M258,105 C258,97.2708333 251.683681,91 243.890247,91 L134.109753,91 C126.316319,91 120,97.2708333 120,105 C120,112.732812 126.316319,119 134.109753,119 L243.890247,119 C251.683681,119 258,112.732812 258,105 Z" id="Path-Copy-4" fill="#ED1C24" fill-rule="nonzero"></path>
        </g>
    </g>
</svg>