<?xml version="1.0" encoding="UTF-8"?>
<svg width="15px" height="18px" viewBox="0 0 15 18" version="1.1" xmlns="http://www.w3.org/2000/svg" xmlns:xlink="http://www.w3.org/1999/xlink">
    <!-- Generator: Sketch 48.2 (47327) - http://www.bohemiancoding.com/sketch -->
    <title>delete@2x</title>
    <desc>Created with Sketch.</desc>
    <defs></defs>
    <g id="Document_Upload" stroke="none" stroke-width="1" fill="none" fill-rule="evenodd" transform="translate(-852.000000, -606.000000)">
        <path d="M864.102708,608.914667 L861.615122,608.914667 C861.491031,607.838625 860.57552,607 859.466716,607 C858.357946,607 857.442567,607.838592 857.318476,608.914667 L854.830758,608.914667 C853.82405,608.914667 853.005135,609.733814 853.005135,610.740489 L853.005135,610.83417 C853.005135,611.603462 853.484141,612.261913 854.158923,612.530203 L854.158923,621.155263 C854.158923,622.161971 854.977938,622.981085 855.98458,622.981085 L862.948919,622.981085 C863.955594,622.981085 864.774542,622.161905 864.774542,621.155263 L864.774542,612.530236 C865.449292,612.261913 865.928331,611.603462 865.928331,610.834203 L865.928331,610.740522 C865.928331,609.733814 865.10935,608.914667 864.102708,608.914667 Z M859.466716,607.865888 C860.097342,607.865888 860.623718,608.317896 860.74019,608.914667 L858.193474,608.914667 C858.309913,608.317863 858.836323,607.865888 859.466716,607.865888 Z M863.908654,621.155263 C863.908654,621.684555 863.478012,622.11523 862.948886,622.11523 L855.984547,622.11523 C855.45542,622.11523 855.024778,621.684522 855.024778,621.155263 L855.024778,612.659992 L863.908654,612.659992 L863.908654,621.155263 Z M865.062443,610.83417 C865.062443,611.363462 864.631801,611.794137 864.102675,611.794137 L854.830758,611.794137 C854.301631,611.794137 853.87099,611.363462 853.87099,610.83417 L853.87099,610.740489 C853.87099,610.211197 854.301631,609.780522 854.830758,609.780522 L864.102708,609.780522 C864.631834,609.780522 865.062476,610.211197 865.062476,610.740489 L865.062476,610.83417 L865.062443,610.83417 Z M857.145557,621.007884 C856.906451,621.007884 856.712596,620.814062 856.712629,620.57499 L856.712629,615.700323 C856.712629,615.461284 856.906484,615.267362 857.145557,615.267362 C857.384629,615.267362 857.578484,615.461284 857.578484,615.700323 L857.578484,620.57499 C857.578484,620.813996 857.384663,621.007884 857.145557,621.007884 Z M859.466716,621.007884 C859.227611,621.007884 859.033789,620.814062 859.033789,620.57499 L859.033789,615.700323 C859.033789,615.461284 859.227644,615.267362 859.466716,615.267362 C859.705756,615.267362 859.899677,615.461284 859.899677,615.700323 L859.899677,620.57499 C859.899677,620.813996 859.705822,621.007884 859.466716,621.007884 Z M861.787876,621.007884 C861.548803,621.007884 861.354882,620.814062 861.354915,620.57499 L861.354915,615.700323 C861.354915,615.461284 861.548737,615.267362 861.787876,615.267362 C862.026915,615.267362 862.22077,615.461284 862.22077,615.700323 L862.22077,620.57499 C862.22077,620.813996 862.026948,621.007884 861.787876,621.007884 Z" id="delete" stroke="#0185E1" stroke-width="0.5" fill="#0185E1" fill-rule="nonzero"></path>
    </g>
</svg>