<?xml version="1.0" encoding="UTF-8"?>
<svg width="120px" height="120px" viewBox="0 0 120 120" version="1.1" xmlns="http://www.w3.org/2000/svg" xmlns:xlink="http://www.w3.org/1999/xlink">
    <!-- Generator: Sketch 48.2 (47327) - http://www.bohemiancoding.com/sketch -->
    <title>Group 2@1x</title>
    <desc>Created with Sketch.</desc>
    <defs>
        <rect id="path-1" x="0" y="0" width="120" height="120"></rect>
    </defs>
    <g id="Document_Upload" stroke="none" stroke-width="1" fill="none" fill-rule="evenodd" transform="translate(-258.000000, -560.000000)">
        <g id="Group-2" transform="translate(258.000000, 560.000000)">
            <g id="Rectangle-3-Copy-68">
                <use fill="#FFFFFF" fill-rule="evenodd" xlink:href="#path-1"></use>
                <rect stroke="#A3B4BC" stroke-width="1" x="0.5" y="0.5" width="119" height="119"></rect>
            </g>
            <path d="M2.57142857,117.428571 L118.941002,1.0589983" id="Line" stroke="#A3B4BC" stroke-linecap="square"></path>
            <path d="M117.4317,117.4317 L1.71428571,1.71428571" id="Line" stroke="#A3B4BC" stroke-linecap="square"></path>
            <rect id="Rectangle-3" fill="#FFFFFF" x="42" y="42" width="36" height="36" rx="4"></rect>
            <g id="file-text-o---FontAwesome---group" transform="translate(50.000000, 50.000000)">
                <path d="M18.3839481,4.24107648 L14.9018011,0.758929476 C14.4888542,0.345982555 13.6629603,0 13.0714418,0 L3.07142985,0 C2.47991129,0 2,0.479911286 2,1.07142985 L2,18.928594 C2,19.5201126 2.47991129,20.0000238 3.07142985,20.0000238 L18.0714477,20.0000238 C18.6629663,20.0000238 19.1428776,19.5201126 19.1428776,18.928594 L19.1428776,6.07143581 C19.1428776,5.47991725 18.796895,4.65402341 18.3839481,4.24107648 Z M13.4285851,1.51785895 C13.6183174,1.58482332 13.8080498,1.68526987 13.8861749,1.76339496 L17.3794826,5.2567027 C17.4576077,5.33482779 17.5580543,5.52456016 17.6250186,5.71429253 L13.4285851,5.71429253 L13.4285851,1.51785895 Z M17.7143044,18.5714507 L3.42857313,18.5714507 L3.42857313,1.42857313 L12.0000119,1.42857313 L12.0000119,6.07143581 C12.0000119,6.66295437 12.4799232,7.14286566 13.0714418,7.14286566 L17.7143044,7.14286566 L17.7143044,18.5714507 Z M6.28571939,8.92858207 L6.28571939,9.64286864 C6.28571939,9.84376173 6.44196958,10.0000119 6.64286268,10.0000119 L14.5000149,10.0000119 C14.700908,10.0000119 14.8571582,9.84376173 14.8571582,9.64286864 L14.8571582,8.92858207 C14.8571582,8.72768898 14.700908,8.57143879 14.5000149,8.57143879 L6.64286268,8.57143879 C6.44196958,8.57143879 6.28571939,8.72768898 6.28571939,8.92858207 Z M14.5000149,11.4285851 L6.64286268,11.4285851 C6.44196958,11.4285851 6.28571939,11.5848352 6.28571939,11.7857283 L6.28571939,12.5000149 C6.28571939,12.700908 6.44196958,12.8571582 6.64286268,12.8571582 L14.5000149,12.8571582 C14.700908,12.8571582 14.8571582,12.700908 14.8571582,12.5000149 L14.8571582,11.7857283 C14.8571582,11.5848352 14.700908,11.4285851 14.5000149,11.4285851 Z M14.5000149,14.2857313 L6.64286268,14.2857313 C6.44196958,14.2857313 6.28571939,14.4419815 6.28571939,14.6428746 L6.28571939,15.3571612 C6.28571939,15.5580543 6.44196958,15.7143044 6.64286268,15.7143044 L14.5000149,15.7143044 C14.700908,15.7143044 14.8571582,15.5580543 14.8571582,15.3571612 L14.8571582,14.6428746 C14.8571582,14.4419815 14.700908,14.2857313 14.5000149,14.2857313 Z" id="file-text-o---FontAwesome" fill="#A3B4BC"></path>
                <rect id="base" x="0" y="0" width="20" height="20"></rect>
            </g>
        </g>
    </g>
</svg>