<?xml version="1.0" encoding="UTF-8"?>
<svg width="24px" height="31px" viewBox="0 0 24 31" version="1.1" xmlns="http://www.w3.org/2000/svg" xmlns:xlink="http://www.w3.org/1999/xlink">
    <!-- Generator: Sketch 48.2 (47327) - http://www.bohemiancoding.com/sketch -->
    <title>Shape Copy 2</title>
    <desc>Created with Sketch.</desc>
    <defs>
        <path d="M383,159 C377.471429,159 373,163.069 373,168.1 C373,174.925 383,185 383,185 C383,185 393,174.925 393,168.1 C393,163.069 388.528571,159 383,159 L383,159 Z M383,171.35 C381.028571,171.35 379.428571,169.894 379.428571,168.1 C379.428571,166.306 381.028571,164.85 383,164.85 C384.971429,164.85 386.571429,166.306 386.571429,168.1 C386.571429,169.894 384.971429,171.35 383,171.35 L383,171.35 Z" id="path-1"></path>
    </defs>
    <g id="360_Veiw_Dashabord" stroke="none" stroke-width="1" fill="none" fill-rule="evenodd" transform="translate(-599.000000, -668.000000)">
        <g id="POS_Locater" transform="translate(228.000000, 511.000000)">
            <g id="Shape-Copy-2">
                <use fill="#F59023" fill-rule="evenodd" xlink:href="#path-1"></use>
                <path stroke="#FFFFFF" stroke-width="2" d="M383,158 C389.060912,158 394,162.49457 394,168.1 C394,169.836792 393.437858,171.784334 392.405588,173.916359 C391.510621,175.7648 390.282109,177.710406 388.803293,179.704959 C387.690132,181.206335 386.499506,182.649671 385.308807,183.984743 C384.891838,184.452269 384.504287,184.873247 384.155866,185.241266 C383.945221,185.463759 383.793271,185.620306 383.709744,185.70446 L383,186.419527 L382.290256,185.70446 C382.206729,185.620306 382.054779,185.463759 381.844134,185.241266 C381.495713,184.873247 381.108162,184.452269 380.691193,183.984743 C379.500494,182.649671 378.309868,181.206335 377.196707,179.704959 C375.717891,177.710406 374.489379,175.7648 373.594412,173.916359 C372.562142,171.784334 372,169.836792 372,168.1 C372,162.49457 376.939088,158 383,158 Z M383,170.35 C384.439088,170.35 385.571429,169.31957 385.571429,168.1 C385.571429,166.88043 384.439088,165.85 383,165.85 C381.560912,165.85 380.428571,166.88043 380.428571,168.1 C380.428571,169.31957 381.560912,170.35 383,170.35 Z"></path>
            </g>
        </g>
    </g>
</svg>