<?xml version="1.0" encoding="UTF-8"?>
<svg width="24px" height="31px" viewBox="0 0 24 31" version="1.1" xmlns="http://www.w3.org/2000/svg" xmlns:xlink="http://www.w3.org/1999/xlink">
    <!-- Generator: Sketch 48.2 (47327) - http://www.bohemiancoding.com/sketch -->
    <title>Shape Copy 4</title>
    <desc>Created with Sketch.</desc>
    <defs>
        <path d="M123,104 C117.471429,104 113,108.069 113,113.1 C113,119.925 123,130 123,130 C123,130 133,119.925 133,113.1 C133,108.069 128.528571,104 123,104 L123,104 Z M123,116.35 C121.028571,116.35 119.428571,114.894 119.428571,113.1 C119.428571,111.306 121.028571,109.85 123,109.85 C124.971429,109.85 126.571429,111.306 126.571429,113.1 C126.571429,114.894 124.971429,116.35 123,116.35 L123,116.35 Z" id="path-1"></path>
    </defs>
    <g id="360_Veiw_Dashabord" stroke="none" stroke-width="1" fill="none" fill-rule="evenodd" transform="translate(-339.000000, -613.000000)">
        <g id="POS_Locater" transform="translate(228.000000, 511.000000)">
            <g id="Shape-Copy-4">
                <use fill="#338DD8" fill-rule="evenodd" xlink:href="#path-1"></use>
                <path stroke="#FFFFFF" stroke-width="2" d="M123,103 C129.060912,103 134,107.49457 134,113.1 C134,114.836792 133.437858,116.784334 132.405588,118.916359 C131.510621,120.7648 130.282109,122.710406 128.803293,124.704959 C127.690132,126.206335 126.499506,127.649671 125.308807,128.984743 C124.891838,129.452269 124.504287,129.873247 124.155866,130.241266 C123.945221,130.463759 123.793271,130.620306 123.709744,130.70446 L123,131.419527 L122.290256,130.70446 C122.206729,130.620306 122.054779,130.463759 121.844134,130.241266 C121.495713,129.873247 121.108162,129.452269 120.691193,128.984743 C119.500494,127.649671 118.309868,126.206335 117.196707,124.704959 C115.717891,122.710406 114.489379,120.7648 113.594412,118.916359 C112.562142,116.784334 112,114.836792 112,113.1 C112,107.49457 116.939088,103 123,103 Z M123,115.35 C124.439088,115.35 125.571429,114.31957 125.571429,113.1 C125.571429,111.88043 124.439088,110.85 123,110.85 C121.560912,110.85 120.428571,111.88043 120.428571,113.1 C120.428571,114.31957 121.560912,115.35 123,115.35 Z"></path>
            </g>
        </g>
    </g>
</svg>