<?xml version="1.0" encoding="UTF-8"?>
<svg width="14px" height="14px" viewBox="0 0 14 14" version="1.1" xmlns="http://www.w3.org/2000/svg" xmlns:xlink="http://www.w3.org/1999/xlink">
    <!-- Generator: sketchtool 57.1 (101010) - https://sketch.com -->
    <title>115B8130-33EE-4068-8F6A-72F0D520F7F3@6d</title>
    <desc>Created with sketchtool.</desc>
    <g id="Notifications" stroke="none" stroke-width="1" fill="none" fill-rule="evenodd">
        <g id="2_Service_Create_04" transform="translate(-332.000000, -238.000000)" fill="#A3B4BC" fill-rule="nonzero">
            <g id="more" transform="translate(327.000000, 233.000000)">
                <g transform="translate(5.000000, 5.000000)">
                    <path d="M1.75,5.25 C2.715125,5.25 3.5,6.034875 3.5,7 C3.5,7.965125 2.715125,8.75 1.75,8.75 C0.784875,8.75 -4.4408921e-16,7.965125 -4.4408921e-16,7 C-4.4408921e-16,6.034875 0.784875,5.25 1.75,5.25 Z M7,5.25 C7.965125,5.25 8.75,6.034875 8.75,7 C8.75,7.965125 7.965125,8.75 7,8.75 C6.034875,8.75 5.25,7.965125 5.25,7 C5.25,6.034875 6.034875,5.25 7,5.25 Z M12.25,5.25 C13.215125,5.25 14,6.034875 14,7 C14,7.965125 13.215125,8.75 12.25,8.75 C11.284875,8.75 10.5,7.965125 10.5,7 C10.5,6.034875 11.284875,5.25 12.25,5.25 Z"></path>
                </g>
            </g>
        </g>
    </g>
</svg>