<?xml version="1.0" encoding="UTF-8"?>
<svg width="48px" height="64px" viewBox="0 0 48 64" version="1.1" xmlns="http://www.w3.org/2000/svg" xmlns:xlink="http://www.w3.org/1999/xlink">
    <!-- Generator: sketchtool 57.1 (101010) - https://sketch.com -->
    <title>EA3ACB73-EE11-4CD7-829B-0CEBADAC7AF5@6d</title>
    <desc>Created with sketchtool.</desc>
    <g id="Notifications" stroke="none" stroke-width="1" fill="none" fill-rule="evenodd">
        <g id="2_Service_Create_01" transform="translate(-215.000000, -220.000000)" fill="#E9E9E9" fill-rule="nonzero">
            <path d="M231.862489,246.89784 L244.827523,256.438396 L263,249.017964 L263,284 L215,284 L215,256.438396 L231.862489,246.89784 Z M261,252.01416 L244.547543,258.73225 L238.01,253.921 L225.723404,253.921974 C225.28372,253.921974 224.908645,253.633733 224.764856,253.22875 L217,257.622824 L217,281.979257 L261,281.979257 L261,252.01416 Z M251.255319,268.762838 C251.819064,268.762838 252.276596,269.236686 252.276596,269.8229 C252.276596,270.409114 251.819064,270.882962 251.255319,270.882962 L251.255319,270.882962 L225.723404,270.882962 C225.15966,270.882962 224.702128,270.409114 224.702128,269.8229 C224.702128,269.236686 225.15966,268.762838 225.723404,268.762838 L225.723404,268.762838 Z M225.723404,260.282345 L251.255319,260.282345 C251.819064,260.282345 252.276596,260.756192 252.276596,261.342406 C252.276596,261.88954 251.878035,262.338789 251.366548,262.396257 L251.255319,262.402468 L225.723404,262.402468 C225.15966,262.402468 224.702128,261.92862 224.702128,261.342406 C224.702128,260.795273 225.100689,260.346024 225.612176,260.288556 L225.723404,260.282345 L251.255319,260.282345 Z M231.721221,249.293768 L227.288,251.801 L235.129,251.801 L231.721221,249.293768 Z M247.970546,220 L263,235.259915 L263,243.321357 L244.827523,251.138087 L231.862489,241.201234 L215,250.741789 L215,220 L247.970546,220 Z M251.255319,243.321357 L237.034793,243.321357 L239.792495,245.441481 L251.255319,245.441481 C251.819064,245.441481 252.276596,244.967633 252.276596,244.381419 C252.276596,243.795205 251.819064,243.321357 251.255319,243.321357 Z M235.93617,234.840864 L225.723404,234.840864 C225.15966,234.840864 224.702128,235.314711 224.702128,235.900926 C224.702128,236.48714 225.15966,236.960987 225.723404,236.960987 L235.93617,236.960987 C236.499915,236.960987 236.957447,236.48714 236.957447,235.900926 C236.957447,235.314711 236.499915,234.840864 235.93617,234.840864 Z M248.94927,223.780348 L248.94927,234.299234 L259.106618,234.299234 L248.94927,223.780348 Z" id="Combined-Shape-Copy"></path>
        </g>
    </g>
</svg>